<svg width="689" height="970" viewBox="0 0 689 970" fill="none" xmlns="http://www.w3.org/2000/svg">
<g clip-path="url(#clip0)">
<rect width="1738.12" height="1236" transform="translate(-35.0625 -266)" fill="white"/>
<g opacity="0.1">
<path d="M555.605 889.199V1304.74L484.069 1418.01L478.625 1426.63H196.365L190.661 889.199H555.605Z" fill="#E6E6E6"/>
<path opacity="0.1" d="M555.605 889.199V1304.74L484.069 1418.01L479.679 889.199H555.605Z" fill="black"/>
<path d="M552.152 869.808C-39.3239 868.399 764.156 903.668 153.597 905.821V869.808L296.152 797.781C296.152 797.781 105.127 551.988 529.972 797.781C580.917 827.256 552.152 869.808 552.152 869.808Z" fill="#E6E6E6"/>
<path d="M262.23 46.6855C258.236 46.3669 254.236 47.2351 250.761 49.175C247.349 51.4455 245.198 55.4231 243.003 59.1245C234.61 73.4454 223.247 85.9166 209.634 95.748C199.719 102.806 187.114 111.605 188.81 124.618C189.705 128.915 191.339 133.035 193.643 136.804C202.79 154.745 227.75 168.609 225.295 189.081C234.382 174.298 222.227 166.989 231.315 152.207C235.642 145.168 243.16 137.221 249.694 141.642C251.882 143.122 253.319 145.777 255.597 147.076C261.032 150.175 266.815 144.25 271.626 140.054C288.218 125.582 311.812 129.373 332.458 133.882C342.205 136.011 352.911 138.804 358.673 147.855C366.248 159.756 351.475 172.609 347.743 186.064C347.438 187.211 347.423 188.412 347.701 189.565C347.978 190.718 348.538 191.789 349.334 192.686C350.13 193.582 351.137 194.278 352.271 194.714C353.404 195.15 354.629 195.313 355.841 195.189C362.036 194.595 369.374 194.108 369.741 191.467C377.535 191.736 387.085 190.879 390.425 182.993C391.445 179.873 391.985 176.623 392.026 173.35C393.251 160.103 399.038 148.019 402.871 135.412C406.704 122.804 408.371 108.029 401.902 96.8515C399.593 93.1324 396.738 89.7609 393.427 86.8434C356.718 52.3266 308.454 46.6343 262.23 46.6855Z" fill="#2F2E41"/>
<path d="M233.278 214.937C233.278 214.937 241.262 279.579 211.989 284.751C182.716 289.922 238.601 377.836 238.601 377.836L371.659 393.35L339.725 289.922C339.725 289.922 318.436 282.165 331.741 230.451C345.047 178.738 233.278 214.937 233.278 214.937Z" fill="#FFB8B8"/>
<path d="M112.195 782.495C112.195 782.495 114.856 932.465 130.823 981.593C146.791 1030.72 144.129 1033.31 141.468 1041.06C138.807 1048.82 136.146 1043.65 136.146 1056.58C136.146 1069.51 130.824 1273.77 136.146 1291.87C141.468 1309.97 120.179 1341 136.146 1343.59C152.113 1346.17 226.625 1343.59 229.287 1328.07C231.948 1312.56 207.997 1307.39 218.642 1297.05C229.287 1286.7 245.254 1074.68 245.254 1074.68L282.51 927.293L351.7 849.723H498.064L543.304 1020.38C543.304 1020.38 524.676 1069.51 537.982 1069.51C551.288 1069.51 631.123 1085.02 631.123 1028.13C631.123 971.25 604.511 803.18 599.189 798.009C593.867 792.838 601.85 774.738 593.866 766.981C585.883 759.224 492.742 704.924 458.147 694.582C423.552 684.239 375.021 671.929 375.021 671.929L112.195 782.495Z" fill="#2F2E41"/>
<path d="M293.154 257.601C337.246 257.601 372.989 222.872 372.989 180.031C372.989 137.19 337.246 102.46 293.154 102.46C249.063 102.46 213.319 137.19 213.319 180.031C213.319 222.872 249.063 257.601 293.154 257.601Z" fill="#FFB8B8"/>
<path d="M189.369 317.072C189.369 317.072 319.766 342.929 351.7 301.558C383.634 260.187 396.94 417.914 396.94 417.914L412.907 583.397L388.956 673.896C388.956 673.896 263.882 772.152 223.964 779.909C184.047 787.666 122.84 792.838 122.84 792.838C122.84 792.838 141.468 505.827 141.468 500.655C141.468 495.484 189.369 317.072 189.369 317.072Z" fill="#F50057"/>
<path d="M229.026 268.578C229.026 268.578 200.014 252.43 192.03 267.944C184.047 283.458 109.534 322.243 101.551 322.243C93.567 322.243 117.518 536.855 106.873 562.712C96.2282 588.569 45.666 777.324 74.9389 792.838C104.212 808.352 82.9224 777.324 112.195 816.109C141.468 854.894 285.171 854.894 293.154 839.38C301.138 823.866 229.287 707.51 242.592 598.911C255.898 490.313 277.188 340.343 258.559 319.658C239.931 298.972 229.026 268.578 229.026 268.578Z" fill="#2F2E41"/>
<path d="M325.089 286.044L328.795 273.649C328.795 273.649 439.519 309.315 444.841 332.586C450.164 355.857 447.502 518.755 428.874 531.684C410.246 544.612 383.634 565.298 402.263 596.326C420.891 627.354 442.18 660.968 458.147 663.554C474.114 666.139 503.387 684.239 495.403 702.339C487.42 720.438 391.618 686.825 391.618 686.825C391.618 686.825 327.75 640.282 330.411 567.883C333.072 495.484 325.089 286.044 325.089 286.044Z" fill="#2F2E41"/>
<path d="M418.229 591.154L354.361 707.51C354.361 707.51 261.22 800.595 314.444 810.937C367.667 821.28 396.94 725.61 396.94 725.61L466.13 629.94L418.229 591.154Z" fill="#FFB8B8"/>
<path d="M266.119 66.9817C262.902 66.7501 259.678 67.3575 256.783 68.7413C254.165 70.599 252.007 73.0016 250.468 75.7735C243.37 86.1477 234.117 94.9649 223.304 101.659C215.233 106.647 204.971 112.867 206.352 122.064C207.102 125.147 208.436 128.068 210.286 130.677C217.758 143.486 220.732 158.31 218.76 172.907L240.953 141.564C244.476 136.588 250.596 130.972 255.915 134.096C257.696 135.143 258.865 137.019 260.719 137.937C265.144 140.128 269.851 135.94 273.768 132.974C287.274 122.745 306.481 125.425 323.288 128.612C331.222 130.116 339.937 132.09 344.628 138.488C352.422 149.119 344.283 164.481 348.832 176.763C350.106 175.897 351.187 174.791 352.013 173.511C352.838 172.231 353.391 170.803 353.637 169.312C359.982 169.503 367.757 168.897 370.475 163.323C371.302 161.139 371.743 158.834 371.778 156.507C372.776 147.145 377.486 138.603 380.607 129.693C383.727 120.782 385.084 110.339 379.818 102.439C377.892 99.7618 375.567 97.3779 372.919 95.365C343.037 70.9688 303.748 66.9455 266.119 66.9817Z" fill="#2F2E41"/>
<path d="M418.229 322.243L443.024 328.638C443.024 328.638 500.726 472.213 487.42 570.469C474.114 668.725 466.13 648.039 466.13 648.039C466.13 648.039 444.841 601.497 396.94 611.84L418.229 322.243Z" fill="#2F2E41"/>
<path d="M66.9554 642.868L178.724 810.938C178.724 810.938 247.915 896.265 269.204 857.48C290.493 818.695 194.691 754.053 194.691 754.053L122.84 624.768L66.9554 642.868Z" fill="#FFB8B8"/>
<path d="M122.84 327.415L101.551 322.243C101.551 322.243 58.9719 335.172 48.3272 389.471C37.6826 443.77 45.666 660.968 58.9719 663.554C72.2777 666.139 124.689 625.735 133.079 634.302C141.468 642.868 114.856 598.911 122.84 575.64C130.823 552.369 122.84 327.415 122.84 327.415Z" fill="#2F2E41"/>
</g>
</g>
<defs>
<clipPath id="clip0">
<rect width="1738.12" height="1236" fill="white" transform="translate(-35.0625 -266)"/>
</clipPath>
</defs>
</svg>
